<?xml version="1.0" encoding="utf-8"?>
<!-- Generator: Adobe Illustrator 24.1.0, SVG Export Plug-In . SVG Version: 6.00 Build 0)  -->
<svg version="1.1" id="Capa_1" xmlns="http://www.w3.org/2000/svg" xmlns:xlink="http://www.w3.org/1999/xlink" x="0px" y="0px"
	 viewBox="0 0 520 120" style="enable-background:new 0 0 520 120;" xml:space="preserve">
<style type="text/css">
	.st0{fill:#FFFFFF;}
</style>
<g>
	<path class="st0" d="M98.19,10.21H43.82c-7.83-0.01-14.19,6.33-14.2,14.16c0,0,0,0,0,0v1.44h26.38v82.35h15.98V25.81h12.08
		c7.8-0.03,14.11-6.36,14.13-14.16V10.21z"/>
	<path class="st0" d="M256.46,56.18L239.24,49c-5.64-2.28-11.14-5.15-11.14-12.87c0-7.25,5.53-11.54,14.79-11.54
		c4.82,0.04,9.52,1.55,13.47,4.33c4.53,3.09,10.68,2.09,14-2.27l1.95-2.52l-0.84-0.91c-7.87-8.28-17.22-12.49-27.82-12.49
		c-9.06,0-16.81,2.5-22.43,7.25c-5.74,4.68-9.07,11.69-9.06,19.09c0,6.95,2.18,12.75,6.47,17.22c2.76,2.93,6.07,5.28,9.74,6.94
		c3.53,1.81,9.87,4.28,14.99,6.27l0.52,0.2c4.79,1.91,13.73,5.44,13.73,13.88c0,9.84-8.45,14.24-16.83,14.24
		c-7.3,0-13.31-3.81-17.07-7.01c-1.77-1.52-4.02-2.35-6.34-2.37c-2.78,0.01-5.41,1.21-7.25,3.29l-2.63,2.92l0.82,0.91
		c4.2,4.85,14.05,16.18,31.24,16.18c9.55,0,17.54-2.56,23.77-7.63c6.5-5.2,10.28-13.07,10.26-21.39c0.05-6.08-2.08-11.98-6.02-16.62
		C264.26,60.29,258.46,57.1,256.46,56.18z"/>
	<path class="st0" d="M348.76,71.97c0-18.92-13.1-32.13-31.86-32.13c-19.72,0-34.03,14.59-34.03,34.71c0,21,13.51,35.1,33.62,35.1
		c11.86,0,22.16-3.62,29-10.27l0.22-0.21l1.04-0.91l-1.06-1.42c-2.26-3.04-5.84-4.82-9.62-4.79c-1.86,0-3.7,0.43-5.38,1.23
		c-3.92,1.87-8.2,2.83-12.54,2.81c-10.94,0-18-6.34-19.14-17.04h42.66C345.57,79.04,348.73,75.88,348.76,71.97z M316.49,52.75
		c11.32,0,16.22,8.55,16.98,14.82h-34.33C300.03,61.72,304.43,52.75,316.49,52.75z"/>
	<path class="st0" d="M477.87,75.02c-2.33-2.1-5.01-3.76-7.92-4.92c-2.3-0.91-4.42-1.65-7.11-2.57l-1.64-0.57
		c-6.1-1.95-11.57-4.04-11.57-8.23c0-5.7,5.54-6.54,8.84-6.54c3.56,0.06,7.05,1,10.16,2.72c1.3,0.7,2.75,1.07,4.23,1.07
		c2.96,0,5.72-1.46,7.38-3.91l1.71-2.51l-0.79-0.84c-5.58-5.94-13.09-8.84-22.95-8.84c-15.86,0-23.08,10.28-23.08,19.83
		c0,7.46,3.68,13.08,10.87,16.68c1.99,1.07,4.08,1.93,6.25,2.56l2.76,0.91c0.54,0.19,1.19,0.39,1.88,0.61
		c4.62,1.44,11.61,3.62,11.61,8.73c0,6.75-6.81,7.76-10.87,7.76c-4.57-0.17-9.01-1.63-12.8-4.2c-1.56-1.04-3.4-1.6-5.28-1.6
		c-2.7,0-5.27,1.21-6.99,3.3l-1.87,2.27l0.7,0.91c5.98,7.77,15.27,12.05,26.16,12.05c7.58,0,13.89-2.02,18.78-6.01
		c4.65-3.88,7.28-9.66,7.14-15.71C483.53,83.03,481.5,78.33,477.87,75.02z"/>
	<path class="st0" d="M121.75,38.1c-0.82,0-1.63,0-2.44,0.09c-12.85,1.15-22.68,11.93-22.65,24.83v45.16h15.55V63.27
		c0-4.95,3.46-8.62,6.81-9.32c7.17-1.49,9.88-5.03,11.78-9.9l1.6-4.19l-1.49-0.43C127.94,38.54,124.85,38.09,121.75,38.1z"/>
	<path class="st0" d="M390.94,41.63c-5.45,0.04-10.65,2.28-14.41,6.23c-1.58-4.82-8.45-8.3-15.3-5V70.8v37.15h15.96V70.8
		c0-7.73,6.06-14.13,13.5-14.26h0.25c7.6,0,13.75,6.16,13.76,13.76v37.7h15.94V71.4c0.02-16.42-13.27-29.75-29.7-29.77
		C390.95,41.63,390.95,41.63,390.94,41.63z"/>
	<circle class="st0" cx="170.53" cy="31.54" r="9.63"/>
	<path class="st0" d="M200.23,39.74V80.1c0,15.02-11.93,29.69-29.7,29.69s-29.7-14.66-29.7-29.69V39.74h1.43
		c8.01,0,14.5,6.49,14.5,14.5V79.8c-0.2,7.6,5.81,13.92,13.41,14.11s13.92-5.81,14.11-13.41c0.01-0.24,0.01-0.47,0-0.71V54.25
		c0-8.01,6.49-14.5,14.5-14.5L200.23,39.74z"/>
	<path class="st0" d="M485.44,104.11h-1.22v3.72h-0.71v-3.72h-1.21v-0.56h3.14V104.11z M490.38,107.83h-0.73l-0.24-3.41l0,0
		l-1.12,3.41h-0.55l-1.09-3.38l0,0l-0.23,3.41h-0.71l0.32-4.31h0.91l1.05,3.25l0,0l1.05-3.25h0.96L490.38,107.83z"/>
</g>
</svg>
